<?xml version="1.0" standalone="no"?>
<!DOCTYPE svg PUBLIC "-//W3C//DTD SVG 20010904//EN"
 "http://www.w3.org/TR/2001/REC-SVG-20010904/DTD/svg10.dtd">
<svg version="1.0" xmlns="http://www.w3.org/2000/svg"
 width="450.000000pt" height="450.000000pt" viewBox="0 0 450.000000 450.000000"
 preserveAspectRatio="xMidYMid meet">
<metadata>
Created by potrace 1.10, written by Peter Selinger 2001-2011
</metadata>
<g transform="translate(0.000000,450.000000) scale(0.100000,-0.100000)"
fill="#000000" stroke="none">
<path d="M210 4480 c0 -40 61 -90 175 -146 61 -29 114 -56 118 -60 3 -4 2 -15
-4 -26 -7 -14 -7 -23 1 -33 9 -11 4 -12 -27 -8 -75 10 -115 -56 -117 -195 -1
-115 65 -218 174 -272 56 -27 57 -30 44 -64 -5 -13 -4 -17 3 -13 7 5 9 -1 5
-15 -4 -15 -2 -19 7 -13 10 6 12 0 6 -24 -5 -23 -3 -33 9 -37 9 -3 12 -12 9
-22 -5 -14 -2 -14 18 3 l24 20 -22 -26 c-22 -24 -31 -45 -15 -36 4 3 8 -17 9
-43 2 -26 21 -97 43 -156 36 -98 38 -110 23 -119 -30 -18 -84 -68 -94 -86 -23
-44 -28 -124 -19 -326 5 -114 14 -242 21 -283 16 -104 58 -207 137 -329 76
-119 115 -148 214 -158 53 -5 56 -7 66 -41 9 -29 8 -37 -5 -47 -14 -11 -13
-13 7 -18 19 -5 21 -9 11 -20 -9 -12 -8 -16 5 -21 13 -5 15 -9 6 -18 -9 -9 -8
-16 5 -30 15 -17 15 -18 0 -18 -26 0 -20 -19 14 -51 31 -29 31 -30 14 -49 -17
-19 -17 -20 3 -20 31 0 27 -18 -4 -26 -19 -5 -22 -9 -13 -15 8 -4 24 -6 36 -2
14 3 23 1 23 -6 0 -6 -9 -11 -20 -11 -28 0 -25 -18 5 -26 29 -7 70 -58 60 -75
-4 -6 2 -13 14 -16 12 -3 21 -11 21 -18 0 -8 10 -17 23 -21 19 -6 20 -8 4 -13
-17 -6 -17 -8 2 -28 11 -11 26 -23 33 -26 10 -4 10 -8 -2 -17 -10 -8 -11 -13
-4 -16 6 -3 20 -11 30 -19 18 -13 19 -29 18 -239 l-1 -225 -41 -48 c-22 -26
-111 -120 -198 -208 -119 -119 -185 -177 -259 -227 -108 -71 -444 -235 -668
-325 -75 -30 -137 -59 -137 -64 0 -38 209 35 475 166 82 41 152 72 154 69 3
-2 -7 -30 -22 -62 -36 -79 -69 -174 -62 -180 7 -7 7 -7 44 93 56 152 65 163
197 241 125 73 236 174 351 317 52 65 83 82 63 34 -6 -12 -15 -34 -21 -50 -6
-15 -15 -27 -21 -27 -6 0 -7 7 -4 16 6 14 4 15 -9 4 -12 -10 -13 -15 -4 -21 7
-4 14 -17 16 -29 2 -12 -1 -19 -6 -16 -5 3 -9 -4 -9 -17 0 -24 -2 -35 -27
-147 -10 -43 -17 -122 -17 -185 -1 -93 3 -118 22 -162 16 -37 28 -53 41 -53
24 0 24 -3 -7 77 -23 58 -27 82 -25 163 1 124 13 176 76 350 80 218 75 206 85
190 6 -8 10 -24 10 -35 0 -38 66 -159 127 -235 67 -83 144 -158 276 -268 48
-40 87 -77 87 -81 0 -4 -45 -18 -101 -31 -55 -12 -119 -29 -142 -36 l-42 -14
47 4 c28 2 45 0 42 -6 -3 -5 2 -15 12 -23 11 -7 16 -17 11 -21 -4 -4 -16 2
-27 14 -15 15 -29 20 -59 18 -22 -2 -38 1 -35 6 16 25 -112 -28 -135 -56 -12
-14 -9 -16 18 -16 18 0 31 5 31 13 0 8 4 7 10 -3 8 -13 10 -12 10 3 0 10 5 15
10 12 6 -3 10 -1 10 6 0 10 3 10 12 1 7 -7 17 -8 28 -2 24 13 90 3 112 -17 16
-15 18 -14 26 8 6 16 5 28 -4 37 -19 19 -18 20 12 14 19 -3 25 -1 20 7 -4 6
-2 11 4 11 8 0 10 -9 6 -24 -4 -15 0 -28 9 -36 17 -14 33 -6 46 24 7 17 9 14
6 -16 -2 -21 1 -38 5 -38 4 0 8 5 8 11 0 7 10 9 28 4 42 -10 106 -14 91 -4
-11 6 -10 9 3 14 20 8 41 -2 33 -16 -12 -19 21 -8 49 16 16 14 34 26 40 26 54
7 56 6 45 -7 -6 -8 -15 -11 -20 -8 -5 3 -6 -3 -2 -12 4 -12 3 -15 -5 -10 -7 4
-12 2 -12 -3 0 -6 9 -11 21 -11 13 0 18 4 13 12 -5 8 -2 9 10 5 14 -5 17 -3
13 8 -4 8 -1 17 5 21 7 4 8 3 4 -4 -5 -8 0 -12 12 -12 11 0 25 -7 32 -15 8 -9
30 -15 57 -15 40 0 44 2 33 15 -20 24 -135 86 -227 122 -114 45 -268 156 -386
276 -103 106 -209 252 -227 315 -8 26 -9 112 -3 284 l8 247 119 -105 c134
-119 276 -229 276 -214 0 6 -3 10 -7 10 -5 0 -27 19 -50 43 -65 65 -75 77 -64
77 5 0 13 -4 16 -10 9 -15 144 -92 195 -111 57 -22 75 -11 90 56 15 65 6 67
-18 4 -23 -62 -47 -80 -38 -28 5 32 5 32 -5 8 l-10 -27 -62 33 c-34 19 -61 39
-59 45 1 6 -2 9 -8 5 -21 -13 -277 193 -286 230 -3 14 -10 22 -15 19 -5 -3 -9
0 -9 5 0 6 -7 11 -16 11 -11 0 -14 6 -9 21 6 18 4 20 -13 15 -15 -5 -24 -1
-33 16 -11 21 -11 22 4 9 10 -7 17 -9 17 -3 0 13 -29 36 -37 29 -16 -16 -33
17 -27 52 5 30 4 34 -7 24 -20 -19 -31 -15 -19 6 14 26 13 31 -4 25 -24 -9
-39 32 -27 69 l11 32 -18 -24 c-15 -19 -20 -20 -25 -8 -3 8 0 20 6 26 9 9 8
11 -6 6 -17 -7 -22 6 -19 48 1 10 -3 15 -8 12 -6 -3 -10 -14 -10 -23 0 -11 -3
-13 -11 -5 -7 7 -8 17 -1 29 5 11 7 25 5 32 -3 7 1 20 8 30 11 14 10 14 -8 -1
-21 -19 -22 -19 -16 5 3 17 2 19 -5 9 -21 -30 -106 294 -147 559 -14 91 -37
224 -52 295 -55 273 -34 785 38 901 10 17 19 40 19 50 0 11 16 43 35 72 20 28
33 52 30 52 -4 0 2 12 13 28 34 49 34 58 0 17 -18 -22 -48 -56 -66 -75 l-32
-35 34 58 c19 32 51 79 72 105 l38 47 -37 -34 c-46 -43 -49 -30 -5 19 18 19
26 29 18 23 -7 -7 -18 -13 -23 -13 -4 0 -5 6 -1 13 5 8 2 8 -9 -2 -9 -7 -17
-10 -17 -5 0 4 -14 -5 -30 -21 -17 -16 -28 -35 -26 -42 3 -7 0 -12 -6 -10 -6
1 -13 -5 -15 -13 -4 -13 -3 -13 6 0 6 8 11 11 11 6 0 -5 7 -3 15 4 8 7 15 8
15 2 0 -5 -7 -15 -16 -23 -18 -14 -48 -69 -41 -75 2 -2 21 21 41 52 21 31 40
54 42 51 3 -3 -13 -32 -35 -66 -22 -35 -38 -71 -36 -82 2 -10 0 -19 -4 -19 -4
0 -8 -6 -8 -12 0 -7 -14 -54 -31 -104 -18 -52 -33 -124 -37 -170 -11 -128 -23
-225 -28 -230 -2 -3 -22 11 -43 32 -22 20 -51 42 -66 50 -21 11 -28 22 -28 44
0 16 -4 39 -9 52 -16 39 -55 173 -53 181 1 4 -2 7 -6 7 -5 0 -8 16 -7 35 0 19
-3 35 -8 35 -4 0 -6 14 -3 31 5 35 -2 61 -15 53 -5 -3 -7 1 -4 8 3 7 -4 44
-14 83 -11 38 -17 73 -15 77 3 4 -1 8 -8 8 -11 0 -10 2 0 9 11 7 11 9 -2 14
-21 8 -20 26 1 49 10 12 13 22 8 26 -6 4 -11 14 -11 22 -1 8 -5 24 -10 34 -6
15 -4 17 7 11 8 -4 2 5 -13 21 -30 32 -58 92 -58 124 0 12 -5 18 -10 15 -13
-8 -32 42 -25 66 4 11 -1 22 -12 28 -14 9 -12 10 13 5 36 -7 48 10 45 61 -3
54 -21 72 -110 113 -47 22 -97 49 -111 61 -15 13 -6 10 24 -9 64 -39 84 -39
25 -1 -24 16 -57 43 -73 60 -34 36 -76 42 -76 11z m84 -70 l21 -25 -24 20
c-22 19 -51 66 -51 82 1 4 8 -5 17 -22 8 -16 25 -41 37 -55z m163 -264 c-2 -6
-11 -10 -20 -10 -9 1 -15 -2 -12 -6 3 -4 -2 -13 -10 -20 -8 -7 -15 -17 -15
-23 0 -5 10 -2 23 9 l22 19 -19 -22 c-10 -13 -23 -20 -28 -17 -12 8 -1 54 19
76 16 18 47 13 40 -6z m13 -52 c0 -3 -12 -21 -27 -41 -53 -70 -27 -178 58
-240 94 -70 88 -62 56 -63 -34 0 -113 76 -142 136 -28 59 -24 135 9 179 24 31
46 45 46 29z m28 -116 c8 -24 29 -62 48 -85 39 -47 41 -53 17 -53 -67 2 -123
97 -97 164 10 26 18 19 32 -26z m572 -188 c-13 -24 -37 -42 -44 -32 -8 13 20
49 38 49 11 0 12 -5 6 -17z m-335 -666 c13 -14 28 -23 33 -20 5 3 27 -14 49
-37 39 -41 41 -45 47 -127 l6 -85 -23 39 c-30 54 -120 126 -156 126 -48 0 -55
-35 -47 -223 7 -150 32 -318 57 -385 17 -45 56 -89 104 -115 25 -14 45 -23 45
-19 0 4 3 18 7 31 5 21 4 22 -14 12 -17 -9 -28 -5 -63 20 -55 40 -75 88 -101
245 -20 125 -22 246 -3 313 5 17 4 22 -4 17 -7 -4 -12 -1 -12 8 0 20 17 30 23
14 3 -7 6 -1 6 15 1 15 3 27 5 27 2 0 13 3 23 7 10 3 15 3 11 -2 -4 -4 -3 -16
3 -26 8 -15 6 -21 -6 -25 -9 -4 -14 -13 -11 -20 3 -7 -2 -53 -10 -101 -14 -80
-14 -98 1 -202 21 -147 52 -209 113 -224 32 -8 27 8 -8 23 -53 22 -74 73 -90
213 -13 113 18 287 51 287 6 0 30 -14 53 -32 22 -17 42 -33 44 -34 2 -1 6 -18
9 -38 5 -31 3 -36 -14 -36 -12 0 -27 -7 -34 -16 -12 -15 -11 -16 8 -10 18 6
23 2 29 -19 3 -14 4 -29 0 -32 -3 -4 -6 4 -6 17 0 32 -13 16 -34 -41 -11 -31
-15 -65 -12 -105 2 -32 4 -69 5 -81 1 -16 17 -31 61 -55 55 -30 60 -37 71 -81
9 -40 9 -51 -5 -72 -19 -28 -20 -35 -6 -35 6 0 10 8 10 17 0 12 3 14 11 6 9
-9 39 -163 39 -202 0 -17 -89 -7 -132 15 -34 18 -170 219 -198 293 -32 83 -51
210 -60 411 -13 254 -4 315 52 354 31 22 45 20 73 -10z m165 -492 c9 -35 39
-197 40 -214 0 -15 -79 47 -89 70 -17 36 -13 99 9 142 11 22 22 40 25 40 2 0
9 -17 15 -38z m475 -1332 c18 -20 18 -20 -6 -17 -13 2 -25 11 -27 20 -5 23 11
21 33 -3z m510 -1160 c0 -8 5 -19 12 -25 7 -5 13 -17 15 -25 2 -8 10 -20 18
-27 22 -17 5 -28 -18 -12 -10 8 -18 22 -16 32 1 9 -4 17 -12 17 -8 0 -14 5
-14 11 0 5 -5 7 -11 4 -6 -5 -4 -12 8 -20 10 -7 15 -17 11 -21 -4 -4 0 -13 9
-19 15 -11 13 -12 -11 -12 -22 0 -27 4 -25 21 3 30 -10 56 -28 56 -13 0 -13
-4 2 -26 16 -25 16 -26 -2 -22 -10 2 -17 11 -15 21 2 10 -4 17 -13 17 -8 0
-15 4 -15 9 0 13 41 21 59 12 18 -9 41 -4 41 10 0 4 -6 6 -14 3 -8 -3 -17 0
-21 6 -5 8 1 11 16 8 13 -1 24 -10 24 -18z m35 -11 c0 -6 7 -9 15 -5 8 3 15 1
15 -3 0 -5 -6 -12 -12 -14 -7 -3 -3 -6 9 -6 12 -1 27 -10 33 -21 6 -11 9 -20
6 -20 -2 0 -13 -3 -23 -7 -15 -6 -16 -5 -5 9 8 10 9 19 3 22 -5 3 -11 2 -13
-4 -1 -5 -13 6 -26 25 -12 19 -18 35 -12 35 5 0 10 -5 10 -11z m-130 -45 c0
-20 -46 -4 -47 17 -1 11 2 17 8 14 5 -4 9 -1 9 6 0 15 29 -21 30 -37z m-90
-29 c0 -8 -4 -15 -10 -15 -5 0 -10 7 -10 15 0 8 5 15 10 15 6 0 10 -7 10 -15z
m110 -5 c0 -5 -5 -10 -11 -10 -5 0 -7 -5 -3 -11 4 -7 1 -10 -7 -7 -8 3 -13 10
-12 16 1 5 -7 8 -19 4 -14 -3 -19 -1 -14 6 9 15 66 16 66 2z m38 -18 c2 -7 -3
-12 -12 -12 -9 0 -16 7 -16 16 0 17 22 14 28 -4z"/>
<path d="M319 4466 c19 -19 52 -44 73 -55 22 -10 34 -21 29 -22 -6 -2 13 -16
42 -31 32 -17 44 -21 30 -9 -12 10 -20 21 -17 24 3 3 -16 17 -43 31 -28 13
-72 41 -99 62 l-49 37 34 -37z"/>
<path d="M345 4476 c17 -14 48 -35 70 -47 l40 -22 -20 24 c-42 50 -67 69 -93
69 l-27 0 30 -24z"/>
<path d="M2185 4480 c4 -13 14 -30 21 -38 20 -19 18 -24 -19 -48 -88 -56 -202
-77 -258 -49 -48 26 -197 65 -243 65 -22 0 -37 -2 -35 -4 12 -13 311 -87 350
-87 83 -1 160 20 191 53 17 19 28 25 28 16 0 -23 -35 -49 -92 -69 -57 -19 -47
-25 14 -9 21 6 51 22 67 35 l29 25 16 -47 c31 -91 14 -217 -32 -242 -12 -6
-40 -8 -66 -5 -57 8 -63 -10 -10 -32 33 -14 38 -14 71 6 l36 21 -7 -23 c-3
-13 -6 -31 -6 -40 0 -10 -7 -18 -15 -18 -29 0 -14 -18 30 -34 l44 -17 68 38
c96 53 148 104 188 187 50 102 61 171 40 257 -10 38 -21 71 -25 74 -4 3 -2
-14 5 -38 20 -66 24 -174 6 -162 -5 3 -7 21 -4 41 6 36 -23 164 -37 164 -4 0
1 -27 11 -61 10 -33 18 -75 18 -92 -2 -27 -2 -28 -6 -7 -9 51 -46 165 -50 153
-2 -6 5 -41 16 -77 34 -109 36 -156 12 -212 -40 -89 -94 -150 -165 -183 -35
-17 -71 -31 -79 -31 -24 0 -28 77 -6 129 21 48 24 64 8 41 -13 -20 -1 54 16
94 7 16 10 38 7 50 -5 17 -8 14 -17 -19 l-12 -39 -17 69 c-18 72 -58 156 -84
178 -13 10 -14 8 -7 -13z"/>
<path d="M2210 4493 c0 -3 7 -14 16 -24 9 -10 27 -46 40 -81 12 -35 23 -56 23
-48 0 8 -6 33 -14 55 -18 49 -18 48 -3 39 7 -4 8 -3 4 5 -4 6 -12 8 -18 5 -7
-5 -9 -1 -5 8 3 9 -2 23 -12 32 -18 17 -31 21 -31 9z"/>
<path d="M2275 4463 c15 -24 31 -41 35 -38 7 4 30 -83 30 -116 0 -13 4 -18 12
-13 7 5 9 1 6 -13 -3 -12 -1 -27 4 -34 6 -9 8 2 4 35 -3 27 -6 61 -6 75 0 21
-2 23 -11 11 -8 -11 -9 -8 -4 13 7 32 -2 70 -15 62 -4 -3 -8 1 -7 8 1 35 -4
46 -23 44 -11 -1 -20 -5 -20 -10 0 -5 -8 -3 -17 4 -9 8 -4 -5 12 -28z m35 -27
c0 -5 -7 -1 -15 10 -8 10 -14 24 -14 29 0 6 6 1 14 -9 8 -11 15 -24 15 -30z"/>
<path d="M2331 4495 c0 -5 6 -21 14 -35 8 -14 14 -20 14 -15 0 6 -6 21 -14 35
-8 14 -14 21 -14 15z"/>
<path d="M2360 4492 c0 -6 5 -23 11 -39 7 -15 11 -41 11 -58 0 -29 0 -29 7 -5
5 16 2 40 -7 65 -17 45 -22 53 -22 37z"/>
<path d="M2400 4486 c0 -7 7 -33 16 -57 9 -24 25 -71 35 -104 28 -95 24 -13
-6 135 -2 8 -4 21 -4 28 -1 17 -41 15 -41 -2z"/>
<path d="M2461 4495 c0 -5 6 -21 14 -35 8 -14 14 -20 14 -15 0 6 -6 21 -14 35
-8 14 -14 21 -14 15z"/>
<path d="M2591 4490 c0 -8 4 -24 9 -35 5 -13 9 -14 9 -5 0 8 -4 24 -9 35 -5
13 -9 14 -9 5z"/>
<path d="M2780 4459 c46 -41 70 -54 118 -65 22 -5 20 -2 -13 18 -22 13 -60 38
-84 56 -62 45 -75 39 -21 -9z"/>
<path d="M2796 4491 c16 -16 137 -91 146 -91 4 0 8 7 8 15 0 9 -6 12 -17 8 -9
-4 -14 -2 -10 3 3 6 -23 25 -59 42 -65 32 -86 39 -68 23z"/>
<path d="M2870 4485 c31 -19 90 -45 99 -45 3 1 -12 10 -33 21 -30 16 -36 23
-25 30 9 6 1 9 -26 8 -40 0 -40 0 -15 -14z"/>
<path d="M3970 4481 c0 -12 -4 -21 -10 -21 -5 0 -10 -6 -10 -14 0 -8 -5 -27
-11 -43 -6 -15 -10 -29 -10 -30 0 -2 -5 -17 -11 -35 -12 -39 -18 -211 -8 -218
11 -7 -15 -137 -44 -223 -33 -98 -44 -142 -51 -206 -3 -29 -9 -70 -14 -90 -6
-20 -20 -76 -32 -126 -12 -49 -27 -101 -34 -115 -7 -14 -19 -61 -26 -105 -9
-52 -21 -88 -34 -102 -11 -12 -28 -33 -38 -48 -11 -14 -21 -24 -24 -21 -3 3
-7 38 -9 78 -2 40 -11 133 -20 206 -14 112 -20 136 -40 158 -13 14 -24 28 -24
32 0 4 -19 27 -41 52 -43 46 -41 43 23 -61 44 -69 57 -136 69 -349 14 -242 6
-409 -26 -565 -13 -66 -34 -185 -45 -265 -51 -355 -98 -536 -182 -705 -60
-120 -166 -295 -179 -295 -5 0 -9 -6 -9 -14 0 -8 -8 -21 -18 -28 -11 -7 -24
-23 -31 -35 -13 -25 -207 -199 -310 -277 -50 -38 -65 -46 -72 -35 -5 8 -8 19
-8 24 0 6 3 4 6 -2 8 -21 22 -15 16 7 -7 27 -21 25 -29 -4 -8 -35 14 -57 44
-43 16 8 25 7 32 -1 6 -7 8 -10 5 -8 -8 5 -85 -65 -85 -76 0 -5 29 15 65 44
36 28 65 54 65 56 0 2 -7 -1 -15 -8 -10 -9 -15 -9 -15 -1 0 6 6 12 13 12 6 1
19 2 27 3 8 0 15 6 15 13 0 6 4 15 9 20 5 5 6 3 2 -4 -12 -22 10 -14 30 9 19
22 19 23 -1 8 -20 -15 -20 -14 -1 8 20 23 32 30 21 12 -18 -29 19 1 130 105
67 63 125 115 129 115 3 0 6 -32 6 -71 0 -38 5 -136 11 -217 15 -199 9 -235
-51 -325 -88 -132 -303 -326 -534 -483 -17 -12 -49 -38 -70 -58 -55 -50 -108
-86 -153 -102 l-38 -13 58 -1 c31 0 57 3 57 8 0 4 18 15 41 25 23 10 76 44
118 76 42 32 105 78 141 103 177 124 372 314 438 427 14 24 33 71 42 105 l17
61 20 -40 c11 -22 32 -85 47 -140 14 -55 35 -133 46 -174 11 -41 20 -97 20
-125 0 -28 4 -79 9 -113 5 -35 6 -96 2 -138 -6 -68 -5 -75 11 -75 25 0 32 52
24 194 -10 190 -14 218 -47 328 -31 106 -50 208 -39 208 10 0 93 -90 148 -161
56 -72 277 -289 294 -289 5 0 23 -9 39 -21 16 -11 36 -18 44 -15 8 3 14 0 12
-7 -2 -11 140 -93 149 -85 2 2 -28 20 -66 38 -39 19 -70 38 -70 43 0 4 3 6 8
4 127 -68 354 -161 387 -160 11 1 14 -1 7 -4 -6 -3 -9 -9 -6 -15 8 -12 -19 -5
-101 29 -86 35 -95 37 -50 12 40 -22 125 -58 201 -84 22 -8 66 -14 99 -13 l58
2 -74 33 c-41 19 -121 54 -179 78 -58 23 -163 71 -235 105 -71 34 -158 76
-192 92 -52 24 -83 51 -185 161 -68 72 -182 193 -255 267 -72 75 -134 147
-137 160 -3 14 -10 86 -16 160 -5 74 -13 167 -16 207 -5 66 -4 72 15 83 12 6
19 15 16 20 -10 16 48 81 68 76 20 -5 23 14 5 32 -9 9 -5 12 19 12 33 0 53 15
31 23 -10 3 -9 9 4 23 10 12 17 35 16 62 -1 53 4 58 36 37 l26 -17 0 31 c0 17
-5 40 -12 51 -10 15 -9 22 5 38 10 11 17 35 17 60 0 22 4 43 9 46 8 6 14 31
27 133 6 41 8 43 58 57 128 38 227 169 260 348 36 188 45 618 16 711 -6 21
-27 56 -46 77 -28 30 -33 44 -28 64 3 14 10 26 15 26 5 0 7 11 3 24 -4 17 -1
27 11 34 12 6 14 12 6 16 -7 4 -7 13 -2 24 11 20 23 53 26 67 3 22 18 71 25
80 4 6 6 24 5 40 -1 17 4 40 12 52 9 16 10 24 1 29 -7 5 -5 11 7 20 14 11 15
16 6 28 -9 11 -8 15 5 20 16 6 16 8 -1 19 -16 12 -16 15 -1 29 9 9 13 24 10
32 -4 9 -1 16 6 16 7 0 10 8 7 20 -3 11 0 26 6 33 7 6 13 23 15 37 1 14 7 26
12 28 5 2 7 9 4 16 -3 8 3 22 13 31 12 13 14 20 6 22 -13 5 -6 34 11 45 7 5 6
8 -4 8 -12 1 -11 3 3 14 12 10 15 16 7 21 -8 5 -8 10 0 20 8 10 8 20 -1 37
-16 30 -20 66 -8 74 5 3 6 11 2 17 -11 18 -3 75 18 139 10 32 19 69 19 84 0
22 2 25 15 14 10 -9 15 -9 16 -1 5 40 3 46 -18 49 -18 3 -23 -2 -23 -17z
m-194 -1378 c27 -63 34 -233 19 -459 -16 -245 -37 -328 -109 -436 -49 -72 -90
-108 -150 -133 l-38 -16 6 43 c4 24 13 68 20 98 l14 55 2 -40 2 -40 9 33 c7
25 7 40 -3 55 -11 17 -11 36 -3 83 10 63 33 104 45 84 4 -6 14 -2 26 12 16 19
16 20 1 9 -9 -8 -20 -11 -24 -8 -3 4 -12 2 -20 -5 -12 -10 -13 -3 -8 43 3 30
10 74 15 99 5 25 12 62 15 83 9 59 22 43 28 -38 7 -80 4 -94 -27 -140 l-20
-30 21 18 c12 10 23 15 25 10 3 -4 3 -3 2 4 -2 7 1 15 5 18 12 7 23 -24 14
-37 -3 -7 -1 -8 5 -4 7 4 17 16 23 28 6 11 7 18 2 15 -5 -3 -15 -2 -23 3 -11
7 -11 11 -1 24 13 15 17 42 20 113 1 17 8 39 17 48 9 9 14 18 11 21 -13 14
-47 -38 -48 -73 0 -36 -1 -36 -10 -13 -6 14 -11 54 -12 90 -1 36 -6 70 -10 76
-10 17 27 124 43 124 13 0 58 -116 71 -180 14 -73 6 -224 -15 -274 -8 -19 -28
-45 -46 -57 -32 -25 -63 -68 -75 -106 -10 -34 16 -29 51 9 16 18 19 24 6 14
-12 -11 -24 -17 -26 -15 -11 11 30 70 60 88 44 26 54 53 66 183 10 98 9 116
-12 205 -31 133 -34 179 -14 187 9 3 20 4 25 0 11 -7 12 -51 0 -58 -4 -3 -1
-27 8 -53 l16 -48 3 85 c2 47 0 95 -3 108 -9 37 -40 26 -91 -35 -26 -32 -51
-62 -56 -68 -4 -5 -5 27 -2 70 6 70 11 84 36 109 15 17 28 33 28 37 0 4 7 15
16 23 21 22 51 5 70 -41z m-456 -1536 c0 -12 -9 -28 -21 -35 -12 -8 -19 -10
-17 -5 35 72 38 75 38 40z m1076 -1541 l29 -17 -30 6 c-42 9 -107 40 -99 48 7
7 52 -10 100 -37z"/>
<path d="M3613 4435 c0 -22 2 -30 4 -17 2 12 2 30 0 40 -3 9 -5 -1 -4 -23z"/>
<path d="M2460 4430 c5 -18 12 -35 16 -39 10 -9 -6 53 -17 63 -5 6 -5 -4 1
-24z"/>
<path d="M1855 4430 c28 -12 37 -12 30 0 -3 6 -16 10 -28 9 -21 0 -21 -1 -2
-9z"/>
<path d="M1810 4405 c41 -14 85 -25 98 -25 13 0 21 -4 17 -9 -8 -14 57 -24 97
-16 48 10 127 35 132 43 5 9 -63 6 -71 -2 -4 -3 -12 -1 -19 5 -9 7 -25 6 -56
-2 -39 -12 -41 -13 -15 -17 15 -2 27 -7 27 -12 0 -10 -45 1 -125 30 -33 12
-82 23 -110 25 l-50 4 75 -24z"/>
<path d="M2498 4413 c7 -15 19 -62 36 -148 2 -11 4 -5 5 14 1 42 -28 151 -41
151 -5 0 -5 -7 0 -17z"/>
<path d="M3840 4424 c1 -5 9 -24 19 -43 16 -30 19 -32 23 -13 4 14 -2 28 -18
43 -13 12 -24 18 -24 13z"/>
<path d="M3887 4406 c10 -13 20 -20 21 -15 5 12 -17 39 -30 39 -5 0 -1 -11 9
-24z"/>
<path d="M3589 4388 c4 -28 6 -29 9 -9 2 13 0 27 -5 32 -6 6 -7 -3 -4 -23z"/>
<path d="M3816 4392 c-7 -20 26 -106 37 -96 3 3 3 12 0 20 -3 8 0 14 6 14 6 0
1 17 -10 38 -27 48 -26 47 -33 24z"/>
<path d="M2407 4330 c6 -98 11 -112 12 -30 0 36 -4 74 -8 85 -5 11 -6 -12 -4
-55z"/>
<path d="M2675 4371 c29 -32 214 -163 201 -143 -3 6 -34 29 -69 53 -34 23 -84
60 -112 82 -46 38 -48 38 -20 8z"/>
<path d="M1610 4381 c-20 -6 -11 -10 50 -24 95 -21 160 -30 160 -23 0 6 -161
57 -176 55 -5 -1 -20 -4 -34 -8z m75 -11 c13 -5 14 -9 5 -9 -8 0 -24 4 -35 9
-13 5 -14 9 -5 9 8 0 24 -4 35 -9z"/>
<path d="M1331 4354 c6 -7 20 -16 31 -20 17 -5 18 -8 7 -16 -10 -7 -8 -9 8 -5
12 3 24 0 25 -5 2 -6 11 -9 21 -7 11 3 -5 15 -43 35 -34 18 -56 26 -49 18z"/>
<path d="M3791 4357 c-1 -20 28 -81 35 -74 2 2 -4 24 -15 48 -11 24 -20 36
-20 26z"/>
<path d="M656 4340 c3 -14 18 -36 32 -50 23 -22 24 -22 7 -2 -11 13 -25 36
-32 50 -13 27 -13 27 -7 2z"/>
<path d="M1424 4335 c37 -30 72 -39 94 -25 13 8 11 9 -13 4 -19 -3 -25 -2 -18
3 9 6 -4 14 -40 25 l-52 16 29 -23z"/>
<path d="M1480 4351 c0 -4 35 -18 77 -32 43 -13 69 -25 60 -27 -10 -2 -31 1
-47 7 -18 6 -30 6 -30 0 0 -9 13 -11 87 -14 36 -1 40 0 25 10 -9 6 -35 19 -57
28 -22 9 -35 16 -29 16 6 1 27 -5 45 -13 30 -12 221 -33 194 -21 -15 6 -238
55 -253 55 -7 0 -11 -4 -8 -9 4 -5 -9 -6 -29 -1 -19 4 -35 5 -35 1z"/>
<path d="M680 4343 c0 -7 10 -22 23 -35 12 -13 17 -17 11 -8 -6 8 -16 24 -22
35 -6 11 -12 15 -12 8z"/>
<path d="M3156 4299 c-72 -23 -85 -33 -31 -23 43 8 105 31 105 39 0 7 -8 5
-74 -16z"/>
<path d="M3160 4273 c-112 -37 -124 -44 -63 -39 50 5 125 35 138 56 3 5 5 9 3
9 -2 -1 -37 -13 -78 -26z"/>
<path d="M3444 4292 c-7 -4 -14 -26 -17 -50 -2 -23 -17 -60 -32 -81 -23 -34
-35 -41 -78 -50 l-52 -10 55 5 55 4 -25 -20 c-17 -13 -39 -19 -70 -19 -42 1
-43 2 -15 9 l30 8 -35 -1 c-43 -2 -54 -31 -15 -41 43 -11 128 36 164 91 17 26
31 51 32 57 0 6 4 32 8 59 4 26 7 47 7 47 -1 0 -6 -4 -12 -8z"/>
<path d="M3466 4247 c-11 -83 -58 -155 -123 -188 -55 -28 -60 -42 -12 -32 43
8 36 -10 -21 -52 -42 -31 -52 -34 -70 -25 -12 6 -20 19 -18 28 1 9 -1 23 -5
30 -6 9 1 12 25 13 l33 1 -34 10 c-40 11 -47 5 -56 -43 -5 -27 -2 -40 10 -52
27 -27 65 -32 99 -12 35 20 170 164 162 173 -4 3 -22 -12 -42 -34 -34 -37 -35
-37 -10 -4 40 54 75 132 80 177 6 63 -11 72 -18 10z"/>
<path d="M395 4281 c11 -5 36 -11 55 -15 l35 -6 -35 14 c-19 8 -44 15 -55 15
-20 0 -20 0 0 -8z"/>
<path d="M3601 4274 c-1 -12 6 -37 14 -55 19 -44 19 -8 0 41 -10 26 -14 29
-14 14z"/>
<path d="M1390 4270 c-30 -6 -26 -8 25 -9 33 0 66 3 74 8 16 11 -48 11 -99 1z"/>
<path d="M3631 4265 c0 -11 6 -33 14 -50 l14 -30 -6 35 c-7 44 -22 75 -22 45z"/>
<path d="M1290 4229 c-25 -5 -54 -13 -65 -18 -11 -6 -29 -12 -40 -14 -11 -2
-19 -9 -17 -16 2 -9 -3 -11 -13 -7 -10 3 -13 2 -10 -5 4 -5 -14 -30 -40 -55
-26 -24 -48 -52 -49 -61 -2 -9 -20 -32 -42 -52 -22 -20 -35 -33 -30 -28 29 21
25 2 -5 -30 -18 -20 -28 -33 -21 -29 7 4 12 2 12 -6 0 -7 15 10 34 37 18 28
32 53 30 56 -10 17 120 106 188 129 57 20 47 27 -14 10 -21 -6 -51 -22 -68
-37 -17 -14 -33 -23 -36 -20 -7 7 68 65 108 82 24 10 28 14 13 15 -61 3 117
36 233 43 6 0 12 4 12 9 0 10 -121 9 -180 -3z"/>
<path d="M999 4164 c-23 -25 -23 -26 -2 -15 23 12 38 29 31 37 -3 2 -15 -8
-29 -22z"/>
<path d="M1280 4180 c-10 -6 -3 -9 27 -7 23 0 39 5 37 9 -7 11 -46 10 -64 -2z"/>
<path d="M2926 4182 c16 -16 94 -42 94 -33 0 5 -21 16 -47 25 -53 18 -61 19
-47 8z"/>
<path d="M2587 4139 c12 -12 25 -20 28 -17 3 3 -7 13 -22 23 l-28 17 22 -23z"/>
<path d="M2820 4147 c0 -2 15 -14 33 -27 l32 -23 -24 26 c-21 23 -41 35 -41
24z"/>
<path d="M3170 4139 c0 -6 -5 -7 -12 -3 -7 4 -8 3 -4 -4 4 -7 17 -17 29 -22
20 -10 21 -10 4 4 -18 14 -18 14 0 18 17 3 17 4 1 10 -10 4 -18 3 -18 -3z"/>
<path d="M619 4092 c11 -21 69 -67 76 -60 6 6 -8 22 -49 52 -32 24 -36 25 -27
8z"/>
<path d="M536 4065 c9 -39 38 -98 58 -114 18 -15 22 -1 5 16 -6 6 -24 37 -40
70 -19 37 -27 47 -23 28z"/>
<path d="M620 4057 c14 -16 34 -33 45 -39 21 -11 20 -10 -35 37 l-35 30 25
-28z"/>
<path d="M3400 4003 c-36 -37 -51 -55 -33 -39 30 27 34 28 64 16 17 -8 46 -25
63 -39 17 -14 25 -19 19 -10 -7 9 -10 18 -7 22 3 3 -4 8 -15 12 -12 3 -21 11
-21 16 0 5 -5 9 -10 9 -6 0 -17 6 -25 13 -11 10 -9 16 13 40 14 15 24 27 21
27 -2 0 -34 -30 -69 -67z"/>
<path d="M1135 4040 c-10 -11 -23 -20 -30 -20 -25 0 -122 -121 -130 -161 -3
-12 -12 -31 -22 -43 -17 -19 -17 -20 0 -7 22 17 22 4 0 -23 -13 -15 -10 -14
10 4 15 13 25 30 22 38 -2 7 -1 10 4 7 5 -3 38 30 72 72 35 44 48 65 30 48
-18 -16 -46 -49 -63 -73 -16 -24 -32 -41 -36 -38 -3 3 2 14 12 25 9 10 16 24
14 32 -2 7 2 13 7 14 13 1 140 134 133 140 -3 3 -13 -4 -23 -15z"/>
<path d="M581 4023 c12 -32 28 -53 41 -53 5 0 -2 18 -14 40 -26 46 -43 53 -27
13z"/>
<path d="M3385 3931 c24 -28 122 -111 112 -95 -4 7 -35 36 -69 65 -35 29 -54
43 -43 30z"/>
<path d="M3400 3947 c0 -1 20 -20 45 -40 24 -21 42 -31 39 -23 -5 12 -84 72
-84 63z"/>
<path d="M3475 3927 c10 -15 20 -25 23 -22 3 3 -5 16 -17 28 l-23 22 17 -28z"/>
<path d="M1040 3851 c-46 -44 -79 -84 -75 -90 4 -7 26 10 54 41 136 150 143
166 21 49z"/>
<path d="M3400 3842 c0 -15 56 -63 65 -55 4 5 5 3 2 -3 -4 -6 3 -20 16 -30
l22 -19 -18 21 c-13 16 -15 23 -6 26 7 2 -8 19 -34 37 -26 17 -47 28 -47 23z"/>
<path d="M3450 3841 c0 -5 12 -17 28 -26 l27 -18 -24 27 c-26 28 -31 31 -31
17z"/>
<path d="M3449 3758 c15 -21 2 -24 -18 -5 -7 6 6 -16 30 -50 47 -65 65 -77 31
-19 -11 19 -16 36 -11 38 6 2 -2 15 -18 28 -15 14 -21 17 -14 8z"/>
<path d="M3480 3635 c17 -25 33 -45 36 -45 3 0 -9 20 -26 45 -17 25 -33 45
-36 45 -3 0 9 -20 26 -45z"/>
<path d="M1060 3610 c-17 -22 -29 -40 -27 -40 3 0 20 18 37 40 17 22 29 40 27
40 -3 0 -20 -18 -37 -40z"/>
<path d="M892 3603 c-5 -16 -13 -37 -17 -48 -7 -20 -7 -20 7 0 15 20 32 75 24
75 -2 0 -9 -12 -14 -27z"/>
<path d="M855 3580 c-4 -12 -5 -24 -2 -27 3 -2 8 5 12 17 4 12 5 24 2 27 -3 2
-8 -5 -12 -17z"/>
<path d="M1345 3569 c-11 -11 -45 -44 -76 -73 -57 -55 -149 -175 -153 -200 -1
-7 -9 -24 -17 -37 -30 -47 -30 -54 -1 -19 25 29 32 32 45 21 9 -7 31 -14 49
-16 26 -3 29 -2 15 6 -9 6 -21 8 -26 5 -4 -3 -16 3 -26 14 -11 13 -14 20 -6
20 26 0 107 -24 129 -38 12 -8 22 -10 22 -4 0 12 -62 38 -113 47 -20 4 -37 11
-37 15 0 9 46 3 63 -7 6 -3 7 -1 3 5 -4 7 -14 12 -22 12 -25 0 -14 24 28 58
22 17 37 32 32 32 -4 0 3 11 16 25 24 25 16 36 -9 13 -11 -10 -12 -10 -7 -1 9
17 139 93 157 93 8 -1 -5 -10 -29 -22 -23 -11 -41 -23 -38 -25 7 -7 70 23 85
40 7 10 19 17 27 17 7 0 16 5 20 12 5 8 2 9 -11 4 -10 -3 -34 -9 -54 -12 -20
-3 -43 -11 -51 -18 -8 -6 -31 -19 -50 -30 -32 -16 -31 -14 15 27 28 25 48 48
45 50 -3 3 -14 -3 -25 -14z"/>
<path d="M2685 3573 c-3 -10 -23 -38 -44 -61 -31 -35 -39 -41 -44 -27 -5 10
-3 14 5 9 7 -4 8 -3 4 4 -4 6 0 25 9 43 9 17 14 33 11 36 -3 4 -15 -16 -26
-43 -39 -91 -41 -93 -36 -41 2 26 -1 47 -6 47 -5 0 -7 -31 -6 -70 l3 -69 22
27 c13 15 22 21 23 13 0 -7 6 -11 15 -7 8 3 15 0 15 -6 0 -6 9 1 20 15 26 33
26 47 0 16 -14 -17 -19 -20 -20 -9 0 13 -1 13 -11 0 -9 -13 -10 -13 -6 0 2 8
10 14 16 12 6 -1 21 14 33 33 11 20 23 34 26 31 3 -3 -1 -12 -8 -21 -7 -9 -11
-18 -8 -20 3 -3 19 13 37 35 17 22 28 40 23 40 -6 0 -12 -7 -16 -15 -11 -29
-28 -16 -21 15 7 32 0 41 -10 13z"/>
<path d="M2778 3562 c-9 -9 -27 -25 -41 -34 -34 -24 -107 -133 -107 -160 l1
-23 20 24 c11 13 17 31 15 38 -3 8 -2 11 3 8 5 -3 13 0 17 6 5 8 3 9 -6 4 -8
-5 -11 -3 -8 6 3 8 10 13 16 12 5 -1 9 5 8 15 0 9 4 16 11 15 12 -3 99 95 91
102 -2 2 -11 -3 -20 -13z"/>
<path d="M2626 3539 c-10 -17 -16 -33 -13 -36 3 -3 13 9 22 27 9 18 15 34 13
36 -2 2 -12 -10 -22 -27z"/>
<path d="M3136 3543 c10 -7 23 -13 28 -13 6 0 4 5 -4 11 -10 7 -11 9 -2 7 8
-2 14 -8 14 -13 1 -13 31 -35 39 -29 9 5 109 -102 109 -116 0 -6 -5 -8 -12 -3
-7 4 -24 9 -38 10 -14 2 -34 7 -45 12 -11 4 -36 15 -55 23 -37 15 -46 14 -210
-22 -81 -17 -211 -20 -234 -4 -17 12 -23 11 -38 -3 -34 -31 -33 -31 122 -33
120 -1 190 7 262 31 65 22 78 23 78 9 0 -5 -8 -7 -17 -3 -14 5 -15 3 -7 -6 9
-10 17 -10 34 -1 20 11 22 10 17 -4 -4 -10 -1 -16 9 -16 9 0 44 -16 78 -35 73
-41 97 -46 44 -10 -20 14 -42 25 -47 25 -6 0 -11 4 -11 9 0 5 -12 14 -27 20
l-28 11 30 -6 c63 -12 199 -120 210 -168 6 -23 9 -26 12 -13 6 25 -44 126
-102 204 -54 75 -140 137 -192 139 -32 1 -34 -1 -17 -13z"/>
<path d="M1758 3527 c12 -13 44 -31 72 -41 30 -11 74 -39 105 -68 53 -49 71
-47 45 3 -8 15 -7 19 5 19 8 0 15 5 15 11 0 5 -4 8 -9 4 -5 -3 -22 10 -36 29
-14 19 -38 42 -53 52 l-27 17 20 -23 20 -23 -23 12 c-36 19 -39 4 -4 -16 16
-9 35 -26 42 -37 11 -18 8 -17 -21 5 -19 14 -58 34 -86 43 -29 10 -55 22 -58
27 -4 5 -11 9 -17 9 -6 0 -2 -10 10 -23z"/>
<path d="M2800 3533 c-14 -9 -36 -29 -49 -46 -22 -26 -23 -29 -4 -19 34 18
106 82 91 81 -7 0 -24 -8 -38 -16z"/>
<path d="M1595 3523 c5 -14 3 -15 -5 -7 -8 8 -33 10 -68 7 -46 -4 -63 -11 -86
-34 -15 -16 -24 -29 -20 -30 18 -1 -32 -18 -55 -18 -25 -1 -24 9 1 13 19 3 68
37 68 47 0 4 -16 1 -36 -7 -20 -8 -43 -13 -51 -10 -8 3 -24 -1 -36 -9 -15 -10
-17 -15 -7 -15 9 0 3 -10 -15 -25 -16 -13 -25 -24 -20 -25 6 0 17 6 25 13 12
10 12 9 1 -5 -10 -14 -9 -18 8 -27 25 -14 61 -14 61 -1 0 9 -30 15 -53 11 -10
-2 -5 32 7 40 4 4 21 0 38 -8 16 -8 38 -13 49 -10 10 3 19 1 19 -4 0 -5 10 -9
23 -9 18 0 19 -2 7 -10 -12 -8 -10 -10 10 -10 14 0 45 -6 70 -14 25 -7 98 -14
163 -14 65 -1 122 -4 126 -6 4 -3 13 -1 21 4 11 7 8 11 -14 19 -15 6 -31 9
-36 6 -5 -3 -11 -1 -14 3 -3 5 -20 8 -38 7 -22 -2 -42 5 -58 19 -14 11 -19 14
-12 6 6 -8 12 -17 12 -20 0 -9 -38 -6 -46 3 -4 4 -17 7 -28 7 -18 0 -19 -2 -6
-11 11 -8 9 -9 -10 -4 -14 4 -29 11 -34 16 -6 5 -22 9 -37 9 -15 0 -38 6 -52
13 -47 25 -5 48 95 52 51 2 63 -1 90 -23 31 -26 31 -26 -6 26 -37 51 -65 70
-51 35z"/>
<path d="M1630 3535 c0 -4 9 -20 20 -36 17 -23 25 -27 44 -19 16 6 35 3 66
-11 24 -11 45 -17 48 -15 8 9 40 -38 35 -50 -3 -7 9 -20 25 -28 20 -10 32 -12
34 -5 2 6 15 2 30 -10 21 -17 27 -18 31 -6 6 15 -85 105 -107 105 -6 0 -23 6
-38 14 -20 11 -28 11 -32 3 -2 -7 -5 -4 -5 5 -1 9 -15 27 -33 39 -17 13 -29
18 -25 12 8 -12 -61 -12 -80 0 -7 5 -13 5 -13 2z m285 -131 c38 -35 43 -42 20
-30 -42 22 -102 76 -85 76 8 -1 38 -21 65 -46z"/>
<path d="M2870 3532 c-14 -2 -41 -17 -60 -33 -35 -30 -35 -30 -5 -16 17 8 41
18 55 22 23 7 24 7 10 -10 -14 -17 -14 -17 7 -6 24 12 105 7 149 -10 14 -5 31
-9 37 -9 19 0 -96 53 -122 56 -13 2 -29 5 -35 6 -6 2 -22 2 -36 0z"/>
<path d="M2980 3531 c0 -10 75 -31 110 -30 14 0 34 -1 45 -3 11 -2 22 2 25 7
3 6 -6 11 -20 12 -14 1 -43 6 -65 12 -49 13 -95 14 -95 2z"/>
<path d="M2010 3525 c0 -2 9 -19 20 -37 23 -39 27 -30 5 12 -14 27 -25 38 -25
25z"/>
<path d="M2490 3513 c0 -12 5 -25 10 -28 13 -8 13 15 0 35 -8 12 -10 11 -10
-7z"/>
<path d="M2037 3418 c29 -72 38 -86 27 -43 -7 30 -41 105 -48 105 -2 0 8 -28
21 -62z"/>
<path d="M2076 3405 c13 -54 24 -73 18 -30 -4 22 -11 45 -16 50 -6 6 -7 -1 -2
-20z"/>
<path d="M2002 3410 c0 -8 4 -26 8 -40 l8 -25 2 25 2 25 8 -25 c6 -20 8 -21 8
-5 0 11 -3 29 -8 40 -9 20 -9 20 -10 0 -1 -20 -1 -20 -10 0 -5 12 -8 14 -8 5z"/>
<path d="M2584 3406 c4 -10 1 -26 -6 -35 -12 -14 -11 -14 5 -2 14 11 17 11 17
0 1 -8 7 -3 15 11 18 32 18 40 0 40 -8 0 -15 -6 -15 -12 0 -9 -4 -8 -11 2 -9
12 -10 12 -5 -4z"/>
<path d="M1250 3384 l-25 -15 25 7 c28 7 35 12 29 18 -2 2 -15 -2 -29 -10z"/>
<path d="M1375 3380 c-2 -4 9 -10 26 -14 38 -7 54 -8 47 -1 -11 11 -68 23 -73
15z"/>
<path d="M3065 3379 c-17 -6 -14 -8 12 -8 17 -1 33 -4 35 -9 3 -8 128 -52 149
-52 8 0 28 -7 44 -15 30 -15 30 -15 8 4 -12 10 -53 26 -92 36 -39 11 -67 23
-64 28 3 6 1 7 -5 3 -6 -4 -24 0 -39 7 -18 9 -36 11 -48 6z"/>
<path d="M1217 3347 c-27 -11 -25 -12 30 -13 32 -1 74 -5 94 -9 20 -4 39 -3
42 2 3 5 -7 8 -22 5 -16 -2 -42 3 -59 12 -36 19 -47 19 -85 3z"/>
<path d="M1231 3314 c6 -8 15 -12 19 -9 4 3 24 -2 44 -10 19 -8 41 -15 48 -14
17 1 -48 30 -90 39 -27 7 -31 6 -21 -6z"/>
<path d="M1554 3240 c-135 -19 -234 -62 -300 -133 -40 -42 -22 -34 31 14 80
73 217 112 371 107 95 -3 107 -6 175 -41 45 -23 64 -29 49 -17 -73 62 -196 88
-326 70z"/>
<path d="M2775 3232 c-54 -19 -115 -57 -115 -73 0 -6 15 1 33 15 51 39 101 56
186 63 150 11 288 -29 376 -109 61 -56 75 -52 19 6 -73 75 -198 116 -359 115
-59 0 -107 -6 -140 -17z"/>
<path d="M2865 3213 c-47 -7 -113 -31 -162 -59 -48 -29 -98 -87 -88 -104 3 -5
30 -10 58 -10 29 0 68 -5 87 -10 19 -6 63 -12 98 -15 35 -2 70 -9 78 -16 10
-8 14 -8 14 0 0 6 6 11 14 11 27 0 84 64 91 103 l7 37 39 -22 c22 -12 46 -30
55 -39 13 -15 12 -19 -16 -42 -17 -15 -47 -29 -68 -33 -20 -3 -53 -10 -72 -14
-32 -7 -30 -8 20 -8 46 0 213 24 186 27 -5 1 -3 8 4 16 8 10 17 12 30 5 9 -5
40 -18 69 -30 l52 -20 -27 35 c-50 66 -231 164 -339 184 -59 11 -75 12 -130 4z
m13 -52 c3 -8 -1 -12 -9 -9 -7 2 -15 10 -17 17 -3 8 1 12 9 9 7 -2 15 -10 17
-17z m80 -10 c3 -16 -1 -22 -10 -19 -7 3 -15 15 -16 27 -3 16 1 22 10 19 7 -3
15 -15 16 -27z m-158 -8 c0 -16 13 -48 30 -73 16 -24 28 -45 27 -46 -7 -7
-177 43 -177 51 0 18 91 95 112 95 5 0 8 -12 8 -27z m226 -7 c-4 -17 -22 -45
-41 -63 -55 -52 -100 -42 -129 30 l-15 37 30 0 c16 0 29 6 30 13 0 6 5 0 11
-15 14 -40 56 -39 71 1 7 19 17 29 30 28 15 -1 18 -7 13 -31z"/>
<path d="M1510 3196 c-77 -22 -133 -51 -200 -105 -90 -72 -91 -74 -50 -66 19
4 41 12 48 18 7 5 15 7 18 4 3 -3 -17 -18 -46 -32 -29 -14 -49 -29 -46 -32 3
-3 25 6 49 20 49 29 66 29 160 -2 54 -18 67 -27 63 -40 -5 -14 -4 -13 8 2 7 9
23 17 35 17 11 0 21 5 21 10 0 6 -21 10 -46 10 -35 0 -129 28 -153 47 -7 5 23
35 66 64 39 27 44 28 49 12 13 -44 40 -86 67 -105 25 -18 35 -20 71 -11 22 6
50 14 60 18 12 5 17 5 13 -2 -4 -6 12 -7 50 -1 31 5 83 10 115 12 32 1 61 5
64 9 4 4 -5 24 -19 46 -20 29 -46 49 -103 77 -67 34 -85 38 -162 41 -50 1
-106 -3 -132 -11z m70 -31 c0 -14 -4 -25 -10 -25 -5 0 -10 11 -10 25 0 14 5
25 10 25 6 0 10 -11 10 -25z m49 -3 c-9 -15 -8 -24 6 -45 16 -26 18 -26 31
-10 11 15 15 16 26 4 11 -12 11 -13 -1 -6 -11 6 -13 4 -8 -7 5 -14 -24 -56
-41 -59 -57 -10 -72 -2 -104 58 -24 44 -17 52 19 23 l28 -22 5 21 c5 20 35 61
45 61 3 0 0 -8 -6 -18z m51 -17 c0 -8 -7 -15 -15 -15 -8 0 -15 7 -15 15 0 8 7
15 15 15 8 0 15 -7 15 -15z m147 -41 c32 -31 51 -53 42 -51 -9 3 -49 -1 -90
-9 -41 -8 -75 -14 -77 -14 -2 0 6 11 16 25 11 14 23 43 27 65 4 22 11 40 15
40 5 0 35 -25 67 -56z"/>
<path d="M1982 3111 c20 -24 38 -53 40 -65 2 -11 6 -16 9 -11 13 19 -21 81
-54 100 l-32 19 37 -43z"/>
<path d="M2500 3081 c0 -5 7 -14 15 -21 13 -10 15 -9 15 9 0 12 -6 21 -15 21
-8 0 -15 -4 -15 -9z"/>
<path d="M1779 3000 c-9 -5 -25 -11 -35 -13 -11 -2 -26 -7 -34 -10 -39 -15
-121 -40 -175 -53 l-60 -14 58 4 c61 5 231 57 263 81 21 16 8 20 -17 5z"/>
<path d="M2820 2973 c58 -25 180 -53 229 -52 l46 1 -45 9 c-124 26 -196 42
-210 47 -36 13 -52 9 -20 -5z"/>
<path d="M2570 2605 c0 -4 19 -33 42 -66 36 -51 43 -68 46 -122 4 -56 1 -66
-22 -94 -15 -17 -43 -35 -64 -41 -33 -9 -34 -10 -9 -11 45 -2 87 26 107 71 17
39 17 43 1 103 -18 64 -101 195 -101 160z"/>
<path d="M1940 2544 c-16 -26 -35 -71 -41 -100 -10 -46 -10 -60 5 -99 18 -46
42 -65 97 -78 19 -5 31 -2 40 10 8 9 10 14 4 11 -21 -11 -109 26 -122 52 -24
48 -16 118 22 187 42 73 38 84 -5 17z"/>
<path d="M2043 2394 c-24 -14 -43 -29 -43 -34 0 -29 141 -40 180 -13 22 16 23
16 16 -2 -4 -11 -4 -17 -1 -13 4 4 19 -7 34 -24 26 -30 51 -32 51 -5 0 7 -4 6
-10 -3 -6 -9 -10 -10 -10 -3 0 7 -24 37 -54 68 -64 65 -95 70 -163 29z"/>
<path d="M2399 2405 c-39 -21 -76 -85 -50 -85 5 0 13 9 16 20 7 23 28 26 44 6
22 -27 60 -28 111 -4 27 13 49 26 50 29 0 10 -97 49 -122 49 -13 -1 -35 -7
-49 -15z m86 -35 c-3 -5 -15 -10 -26 -10 -10 0 -19 5 -19 10 0 6 12 10 26 10
14 0 23 -4 19 -10z"/>
<path d="M2290 2312 c0 -5 12 -14 27 -21 28 -13 28 -13 9 8 -20 22 -36 27 -36
13z"/>
<path d="M2141 2239 c-6 -18 -11 -33 -11 -34 0 -1 7 -2 15 -2 18 0 51 35 42
44 -4 4 -14 -2 -22 -13 -17 -22 -20 -12 -5 17 6 11 7 19 1 19 -5 0 -14 -14
-20 -31z"/>
<path d="M2416 2259 c4 -7 0 -9 -14 -5 -11 4 -23 2 -27 -4 -3 -5 -2 -10 3 -10
6 0 13 -8 16 -17 4 -10 4 -14 0 -11 -3 4 -12 1 -19 -5 -10 -10 -9 -17 6 -36
28 -36 23 -51 -6 -16 -18 22 -23 25 -19 10 6 -20 5 -20 -10 -1 -9 11 -16 15
-16 8 0 -6 10 -21 23 -34 12 -13 19 -19 15 -14 -14 18 -8 29 8 15 9 -7 23 -14
31 -15 11 -2 9 6 -7 33 -27 46 -18 54 20 18 22 -21 27 -31 18 -37 -9 -6 -7 -8
7 -6 12 2 19 -2 17 -10 -1 -8 2 -11 8 -7 10 6 53 -19 137 -81 21 -15 22 -15
18 7 -3 12 -20 39 -38 58 -49 52 -91 111 -79 111 6 0 15 -6 19 -14 4 -8 44
-58 88 -111 79 -97 104 -111 67 -38 -21 39 -82 104 -83 87 0 -5 -4 1 -10 14
-5 13 -13 21 -18 18 -5 -3 -18 9 -29 28 -11 19 -31 41 -44 49 -30 19 -91 31
-82 16z m75 -65 c12 -13 20 -24 16 -24 -3 0 5 -12 20 -26 34 -34 22 -43 -14
-10 -15 14 -33 26 -39 26 -15 0 -37 27 -41 50 -4 25 28 16 58 -16z"/>
<path d="M2104 2228 c2 -18 1 -24 -1 -13 -3 11 -9 25 -15 30 -7 7 -8 1 -2 -20
4 -16 8 -52 7 -80 l-2 -50 15 35 c8 19 12 25 10 12 -2 -12 0 -19 5 -16 7 4 7
64 0 127 -1 4 -5 7 -10 7 -6 0 -8 -15 -7 -32z"/>
<path d="M2056 2198 c3 -24 6 -53 8 -65 2 -12 -1 -20 -5 -17 -5 3 -9 26 -10
52 0 35 -3 42 -9 27 -7 -18 -8 -19 -15 -3 -4 10 -11 15 -16 13 -4 -3 1 -15 12
-26 17 -17 19 -28 13 -64 l-6 -44 27 12 c23 10 26 17 23 49 -2 21 1 40 7 42 5
2 4 5 -2 5 -8 1 -13 14 -13 31 0 17 -4 30 -9 30 -5 0 -7 -19 -5 -42z"/>
<path d="M2195 2177 c-17 -41 -20 -59 -5 -37 8 12 10 11 10 -6 0 -13 12 -26
36 -38 41 -19 54 -15 33 11 -12 16 -12 17 2 6 9 -7 20 -9 24 -5 5 4 5 -1 2
-10 -8 -23 5 -23 34 1 l23 18 -25 13 c-20 10 -22 10 -11 -1 20 -21 14 -30 -10
-17 -13 7 -26 17 -29 21 -3 5 -17 7 -30 5 -20 -3 -24 2 -26 31 -4 48 -10 50
-28 8z"/>
<path d="M3943 2160 c0 -25 2 -35 4 -22 2 12 2 32 0 45 -2 12 -4 2 -4 -23z"/>
<path d="M2012 2125 c-1 -16 -5 -41 -8 -55 -5 -19 -4 -22 5 -14 7 7 11 29 8
55 -2 30 -4 34 -5 14z"/>
<path d="M2709 2106 c6 -7 9 -20 5 -29 -3 -8 -1 -18 5 -22 7 -4 8 1 4 12 -6
17 -5 16 16 -1 12 -11 20 -25 17 -32 -2 -6 1 -20 8 -30 14 -21 17 -56 4 -48
-4 3 -8 11 -8 19 0 8 -11 26 -24 40 -13 14 -31 36 -40 48 -14 20 -15 20 -9 2
4 -11 13 -29 20 -41 7 -12 11 -29 7 -38 -3 -9 -1 -16 6 -16 6 0 8 6 5 13 -4 6
4 0 17 -15 38 -45 74 -29 43 18 -9 14 -14 28 -11 31 3 3 13 -11 22 -31 10 -20
21 -36 26 -36 4 0 8 -5 8 -11 0 -8 -6 -7 -17 2 -15 13 -15 12 -3 -11 8 -16 15
-20 18 -12 3 10 7 10 18 1 8 -6 11 -15 8 -20 -3 -5 -1 -17 5 -26 16 -29 6 37
-11 69 -23 43 -120 167 -136 173 -12 4 -12 3 -3 -9z"/>
<path d="M1961 2093 c0 -12 -4 -30 -7 -40 -5 -14 -4 -15 5 -7 7 6 11 24 8 40
-3 21 -4 23 -6 7z"/>
<path d="M1935 2068 c-4 -18 -9 -42 -12 -53 -4 -16 -3 -17 7 -8 11 10 24 93
15 93 -2 0 -6 -15 -10 -32z"/>
<path d="M1742 2053 c-29 -43 -36 -61 -13 -33 25 29 44 60 37 60 -3 0 -13 -12
-24 -27z"/>
<path d="M1897 2037 c-10 -26 -17 -52 -15 -59 6 -18 40 60 36 85 -2 17 -7 11
-21 -26z"/>
<path d="M2366 2060 c-26 -10 -56 -26 -65 -34 -14 -13 -19 -13 -41 5 -14 10
-42 24 -62 29 -73 21 -209 -45 -335 -161 -34 -32 -72 -59 -84 -61 -15 -2 -25
-13 -30 -30 -7 -27 5 -41 13 -16 3 9 11 10 28 2 18 -8 36 -5 82 14 108 43 158
49 240 27 72 -19 124 -25 142 -16 6 2 34 3 63 2 30 -1 76 5 105 15 68 22 150
14 252 -25 71 -27 81 -29 100 -15 19 13 22 12 38 -8 18 -23 18 -23 7 12 -17
50 -21 52 -67 36 -43 -16 -43 -16 -172 22 -19 6 -61 16 -92 22 -32 6 -60 15
-63 20 -3 5 2 22 11 37 l16 28 -25 -27 c-16 -17 -36 -27 -53 -27 -37 0 -54 -4
-81 -19 -17 -9 -28 -9 -55 2 -18 7 -42 12 -53 11 -11 -2 -35 -4 -53 -6 -18 -2
-31 -8 -28 -14 2 -5 9 -9 17 -7 24 6 108 4 118 -3 6 -3 11 -14 11 -24 0 -16
-5 -16 -72 -5 -42 7 -77 19 -83 28 -7 9 -15 13 -18 10 -3 -4 -24 -8 -46 -10
-54 -5 -79 -10 -130 -28 -54 -20 -51 -20 -51 2 0 47 179 171 278 193 52 12 57
12 105 -14 l51 -27 40 24 c89 52 144 51 205 -3 13 -11 29 -21 35 -21 6 0 22
-10 36 -23 14 -13 38 -32 53 -41 15 -10 27 -27 27 -39 0 -11 3 -18 6 -14 3 3
17 -5 31 -19 35 -35 40 -22 8 20 -37 49 -104 102 -193 153 -86 48 -97 50 -166
23z m62 -179 c17 -10 -22 -27 -90 -40 -35 -6 -51 -5 -58 4 -19 23 21 41 100
43 19 1 41 -2 48 -7z"/>
<path d="M2770 2077 c0 -4 20 -31 45 -61 50 -61 75 -114 75 -157 0 -16 5 -29
11 -29 28 0 -21 143 -57 163 -8 4 -14 13 -14 18 0 6 5 7 11 3 8 -4 8 -1 1 13
-12 22 -42 49 -42 38 0 -4 -7 -2 -15 5 -8 7 -15 10 -15 7z m60 -49 c0 -6 -7
-5 -15 2 -8 7 -15 17 -15 22 0 6 7 5 15 -2 8 -7 15 -17 15 -22z"/>
<path d="M1849 2034 c-6 -13 -16 -21 -20 -18 -5 3 -6 -1 -3 -9 3 -8 -2 -14
-11 -14 -8 0 -15 5 -15 10 0 5 -7 4 -15 -3 -8 -7 -15 -17 -15 -22 0 -7 5 -7
13 0 10 8 13 6 13 -8 0 -10 -4 -16 -8 -14 -4 3 -5 -2 -2 -10 7 -18 25 -11 23
7 -1 7 -1 19 0 27 1 12 4 12 12 -3 5 -9 7 -22 3 -29 -4 -6 -3 -8 4 -4 5 3 12
0 14 -6 3 -8 10 -4 17 11 11 19 11 22 0 16 -13 -9 -13 -9 15 56 12 29 12 36 1
36 -7 0 -19 -11 -26 -23z m4 -34 c-5 -19 -23 -39 -23 -25 0 9 20 45 24 45 2 0
2 -9 -1 -20z"/>
<path d="M1081 1990 c0 -8 4 -24 9 -35 5 -13 9 -14 9 -5 0 8 -4 24 -9 35 -5
13 -9 14 -9 5z"/>
<path d="M1737 1978 c-14 -20 -16 -20 -10 -3 3 11 3 17 -1 14 -4 -4 -8 -16
-11 -28 -2 -11 -7 -27 -11 -34 -4 -6 3 -3 15 8 25 22 45 54 38 61 -2 3 -11 -6
-20 -18z"/>
<path d="M1693 1978 c-6 -7 -13 -22 -17 -33 -5 -13 -9 -16 -14 -8 -5 7 -14 -7
-24 -35 -13 -35 -13 -42 -3 -28 8 10 16 24 18 30 2 6 7 9 10 6 2 -3 -3 -36
-13 -74 -13 -52 -14 -65 -4 -51 8 10 14 24 14 30 0 7 9 20 20 30 11 10 20 24
20 32 0 8 4 12 9 9 5 -3 14 1 21 9 7 8 9 15 5 15 -4 0 -2 6 5 14 6 8 18 12 25
9 12 -4 12 -9 0 -33 -19 -37 -19 -46 0 -30 8 7 15 19 15 27 0 8 4 12 9 9 5 -3
15 2 22 12 12 15 12 16 -2 4 -14 -11 -18 -8 -29 19 l-13 31 -33 -37 c-19 -19
-39 -45 -45 -56 -19 -37 -20 -13 0 50 20 63 20 70 4 49z"/>
<path d="M2932 1830 c0 -19 2 -27 5 -17 2 9 2 25 0 35 -3 9 -5 1 -5 -18z"/>
<path d="M1224 1788 l-29 -33 33 29 c17 17 32 31 32 33 0 8 -8 1 -36 -29z"/>
<path d="M1229 1758 c-24 -29 -36 -47 -26 -39 20 16 81 91 74 91 -3 0 -25 -24
-48 -52z"/>
<path d="M1920 1755 c0 -23 -2 -25 -22 -14 -13 7 -27 17 -31 23 -6 7 -7 7 -5
-2 2 -7 18 -22 36 -33 l32 -21 0 36 c0 20 -2 36 -5 36 -3 0 -5 -11 -5 -25z"/>
<path d="M2150 1771 c8 -5 26 -12 40 -15 l25 -7 -25 15 c-14 9 -32 15 -40 15
-13 0 -13 -1 0 -8z"/>
<path d="M2224 1763 c2 -10 9 -19 17 -19 8 -1 19 -2 26 -3 7 -1 14 -21 16 -48
l3 -48 2 53 c1 31 7 52 13 52 8 0 7 5 -1 15 -11 13 -15 13 -21 3 -7 -10 -12
-11 -29 0 -26 16 -29 15 -26 -5z"/>
<path d="M2488 1770 c12 -5 25 -16 28 -25 4 -8 10 -15 16 -15 5 0 1 11 -9 25
-10 13 -27 24 -38 24 -18 0 -18 -1 3 -9z"/>
<path d="M1972 1740 c0 -19 2 -27 5 -17 2 9 2 25 0 35 -3 9 -5 1 -5 -18z"/>
<path d="M2007 1763 c-10 -9 -8 -45 2 -61 5 -9 8 1 8 27 0 44 0 45 -10 34z"/>
<path d="M2063 1715 c0 -33 2 -45 4 -27 2 18 2 45 0 60 -2 15 -4 0 -4 -33z"/>
<path d="M2629 1753 c14 -27 14 -46 1 -38 -5 3 -10 1 -10 -5 0 -6 -5 -8 -11
-5 -6 4 -19 -2 -30 -14 -11 -12 -17 -21 -15 -21 12 0 96 45 96 51 0 4 -9 17
-21 30 -19 23 -20 23 -10 2z"/>
<path d="M2714 1759 c-3 -6 -15 -9 -25 -6 -22 6 -31 -4 -20 -22 6 -9 15 -6 37
13 16 14 26 26 22 26 -4 0 -10 -5 -14 -11z"/>
<path d="M1870 1717 c0 -7 75 -57 85 -57 5 0 5 4 0 8 -16 14 -85 54 -85 49z"/>
<path d="M3161 1710 c1 -24 15 -54 21 -44 4 5 0 20 -8 34 -7 14 -13 18 -13 10z"/>
<path d="M2152 1680 c0 -19 2 -27 5 -17 2 9 2 25 0 35 -3 9 -5 1 -5 -18z"/>
<path d="M1288 1683 c-18 -21 -31 -43 -25 -43 2 0 13 14 25 30 25 33 24 41 0
13z"/>
<path d="M2116 1678 c-8 -33 -8 -35 10 -42 13 -5 14 -4 6 7 -6 7 -9 23 -5 35
3 12 3 22 0 22 -2 0 -7 -10 -11 -22z"/>
<path d="M2490 1651 c-11 -11 -9 -12 11 -6 43 13 56 23 27 22 -14 -1 -31 -8
-38 -16z"/>
<path d="M3136 1635 c8 -37 14 -45 14 -19 0 10 -5 26 -10 34 -8 11 -9 7 -4
-15z"/>
<path d="M2055 1615 c17 -8 37 -14 45 -14 8 0 -1 7 -20 14 -46 18 -64 17 -25
0z"/>
<path d="M2217 1556 c-26 -14 -54 -22 -66 -19 -12 3 -21 1 -21 -6 0 -5 7 -8
15 -5 11 5 13 2 8 -12 -7 -19 7 -14 40 14 21 18 23 3 2 -24 -17 -22 -20 -38
-5 -29 6 3 10 1 10 -5 0 -7 16 7 35 30 l35 42 -6 -58 -6 -59 20 28 19 29 7
-26 c8 -32 22 -34 31 -5 5 16 9 18 15 9 4 -7 12 -10 18 -6 6 3 13 0 15 -6 3
-8 6 -8 6 -2 1 6 -8 21 -19 34 -24 28 -26 37 -3 19 15 -12 16 -12 10 4 -4 10
-7 26 -7 36 0 25 -62 46 -91 31 -15 -8 -19 -9 -15 -1 10 16 5 14 -47 -13z
m105 -58 c-9 -9 -12 -8 -12 8 0 16 -2 17 -10 4 -11 -17 -13 -9 -4 15 6 15 8
15 22 1 13 -12 14 -18 4 -28z m-98 7 c-9 -14 -19 -23 -22 -20 -5 4 26 45 35
45 2 0 -4 -11 -13 -25z"/>
<path d="M2253 1227 c-5 -18 -7 -53 -4 -77 3 -25 4 -71 1 -103 -3 -32 -2 -63
2 -70 5 -7 8 -1 8 16 0 16 4 26 9 23 5 -4 5 10 0 32 -12 52 -11 59 6 36 8 -10
15 -27 15 -37 0 -10 8 -32 17 -50 15 -28 18 -30 21 -11 2 12 -13 48 -32 80
-36 58 -45 94 -26 94 6 0 10 23 10 50 0 57 -12 65 -27 17z"/>
<path d="M2327 1209 c-7 -49 0 -89 15 -89 5 0 6 -5 2 -12 -4 -7 -3 -8 4 -4 15
9 15 39 -1 101 l-13 50 -7 -46z"/>
<path d="M2414 1185 c4 -16 14 -37 22 -45 12 -12 12 -8 -2 25 -20 50 -29 59
-20 20z"/>
<path d="M2192 1155 c-6 -22 -14 -65 -17 -95 -4 -30 -14 -65 -22 -77 -9 -13
-12 -31 -8 -40 6 -16 8 -15 25 7 11 14 20 33 20 42 0 10 9 41 20 70 11 29 20
60 19 68 -1 16 1 19 -21 -39 -14 -39 -20 -17 -7 32 6 25 9 52 6 59 -2 7 -9 -5
-15 -27z"/>
<path d="M2292 1127 c1 -14 7 -23 12 -20 5 4 7 0 4 -8 -3 -8 1 -27 8 -44 11
-24 13 -26 15 -10 1 14 4 12 10 -10 8 -29 8 -29 5 6 -2 19 -16 53 -30 74 -24
35 -26 36 -24 12z"/>
<path d="M2375 1117 c-4 -13 3 -50 14 -83 12 -33 18 -44 15 -25 -8 43 -14 91
-15 114 0 24 -8 21 -14 -6z"/>
<path d="M2506 1070 c13 -27 24 -67 25 -87 0 -21 3 -32 6 -24 4 10 9 8 19 -10
l13 -24 1 26 c0 15 -7 46 -15 69 -8 24 -13 51 -10 61 3 9 0 21 -6 25 -8 5 -10
2 -7 -8 4 -8 2 -21 -3 -29 -6 -11 -11 -6 -20 19 -6 17 -15 32 -19 32 -5 0 3
-22 16 -50z"/>
<path d="M2417 1067 c-6 -16 18 -106 32 -120 14 -14 -5 71 -19 88 -7 9 -10 18
-7 21 3 4 15 -9 26 -27 12 -19 21 -27 21 -19 -1 8 -11 28 -24 43 -18 22 -24
25 -29 14z"/>
<path d="M2468 1064 c-5 -4 -3 -13 4 -21 6 -8 15 -31 19 -51 6 -34 7 -35 7 -7
1 36 -20 90 -30 79z"/>
<path d="M2006 1016 c-18 -38 -22 -111 -6 -101 6 3 10 21 10 40 0 19 5 46 10
61 15 40 5 40 -14 0z"/>
<path d="M2358 1012 c-3 -23 0 -36 9 -39 7 -3 10 -10 6 -16 -3 -6 -1 -7 5 -3
15 9 14 23 -2 61 l-13 30 -5 -33z"/>
<path d="M1590 1023 c0 -5 12 -20 26 -34 24 -21 26 -22 16 -3 -13 25 -42 50
-42 37z"/>
<path d="M2214 1008 c3 -10 2 -18 -3 -18 -5 0 -11 -10 -14 -22 l-6 -21 21 20
c17 17 18 24 8 39 -10 16 -11 17 -6 2z"/>
<path d="M2597 991 c-11 -52 -9 -65 6 -52 8 6 17 8 21 3 4 -4 12 1 17 11 6 9
14 15 20 12 5 -4 9 9 8 27 l-1 33 -10 -27 c-5 -16 -14 -28 -19 -28 -5 0 -12
-1 -16 -2 -4 -2 -10 11 -13 27 l-6 30 -7 -34z"/>
<path d="M1956 976 c-6 -25 1 -56 13 -56 4 0 5 18 3 40 -5 46 -8 49 -16 16z"/>
<path d="M2071 963 c-14 -48 -14 -53 0 -53 6 0 9 6 6 14 -4 11 0 13 17 10 17
-3 26 3 34 22 7 14 12 27 12 29 0 6 -29 -1 -37 -10 -4 -4 -2 -5 6 0 9 5 12 3
9 -5 -2 -7 -12 -14 -22 -16 -14 -2 -17 2 -12 22 10 39 -2 27 -13 -13z"/>
<path d="M2045 961 c-5 -18 -9 -21 -16 -10 -11 17 -10 1 1 -26 7 -18 9 -18 19
9 7 16 10 34 8 40 -2 6 -7 0 -12 -13z"/>
<path d="M4482 880 c0 -19 2 -27 5 -17 2 9 2 25 0 35 -3 9 -5 1 -5 -18z"/>
<path d="M2621 850 c-24 -16 -49 -31 -55 -33 -6 -2 -8 -8 -4 -12 8 -8 33 7 83
49 39 33 31 31 -24 -4z"/>
<path d="M2263 795 c0 -22 2 -30 4 -17 2 12 2 30 0 40 -3 9 -5 -1 -4 -23z"/>
<path d="M2775 778 l-40 -43 43 40 c23 21 42 40 42 42 0 8 -9 0 -45 -39z"/>
<path d="M1870 708 c0 -8 17 -22 38 -32 36 -17 36 -17 17 1 -46 41 -55 47 -55
31z"/>
<path d="M2196 694 c-4 -10 -1 -14 6 -12 15 5 23 28 10 28 -5 0 -13 -7 -16
-16z"/>
<path d="M2939 683 c-34 -38 -53 -63 -46 -63 2 0 21 20 41 45 41 50 44 61 5
18z"/>
<path d="M1112 513 c-19 -53 -21 -62 -12 -68 6 -4 10 8 10 27 0 21 3 28 8 20
6 -8 9 -2 9 18 0 37 -2 37 -15 3z"/>
<path d="M1082 355 c-1 -16 -4 -48 -7 -70 l-5 -40 11 33 c5 19 8 50 6 70 -3
33 -4 34 -5 7z"/>
<path d="M2870 94 c-114 -25 -168 -33 -206 -29 -38 5 -63 1 -90 -11 -34 -15
-36 -18 -16 -21 12 -3 22 -12 23 -21 0 -11 2 -12 6 -4 2 6 9 10 14 6 5 -3 9 0
9 5 0 6 4 11 10 11 5 0 6 -8 3 -17 -6 -16 -5 -16 17 0 27 19 44 22 35 7 -3 -6
1 -7 9 -4 9 3 13 11 9 18 -5 8 -3 8 8 0 18 -14 52 -14 61 0 4 6 15 11 25 12
10 1 32 4 49 8 24 5 34 2 49 -14 16 -18 17 -23 5 -30 -11 -7 -8 -10 12 -10
l27 0 -17 30 c-13 23 -14 32 -4 42 9 9 12 8 12 -7 1 -26 22 -53 37 -48 6 2 14
-1 18 -6 3 -6 21 -10 38 -10 21 1 25 3 11 6 -27 5 -68 48 -59 62 3 6 17 11 31
11 17 0 24 -5 24 -20 0 -20 32 -60 48 -60 5 0 17 8 26 19 14 16 21 17 41 7 14
-6 25 -14 25 -18 0 -5 20 -8 45 -8 25 0 45 4 45 9 0 5 -21 17 -47 27 -27 10
-70 35 -97 56 -27 21 -56 38 -65 37 -9 -1 -86 -16 -171 -35z m174 5 c-3 -6 -1
-15 5 -19 9 -5 8 -10 -2 -18 -11 -10 -14 -6 -15 18 0 17 4 30 9 30 6 0 7 -5 3
-11z m34 -61 c-6 -18 -28 -21 -28 -4 0 9 7 16 16 16 9 0 14 -5 12 -12z"/>
<path d="M260 55 c-14 -8 -20 -14 -15 -14 6 0 21 6 35 14 14 8 21 14 15 14 -5
0 -21 -6 -35 -14z"/>
<path d="M2240 10 c-11 -7 -3 -10 30 -10 33 0 41 3 30 10 -8 5 -22 10 -30 10
-8 0 -22 -5 -30 -10z"/>
</g>
</svg>
